Coordinates
version=1
nRows=49
nColumns=12
inDegrees=yes

Units are S.I. units (second, meters, Newtons, ...)
Angles are in degrees

endheader
time	SC_y	SC_z	SC_x	AC_y	AC_z	AC_x	GH_y	GH_z	GH_yy	EL_x	PS_y
       0.0              -12.12          20.62          15.54           50.8         -10.95          4.184         -74.72         -2.352          32.55          52.97          87.06
   0.03129              -12.12          20.62          15.54          50.81         -10.95          4.185         -74.71         -2.344          32.55          52.98          87.06
   0.06258              -12.12          20.62          15.54          50.81         -10.95          4.185         -74.69         -2.335          32.54          52.99          87.06
   0.09387              -12.12          20.62          15.54          50.81         -10.95          4.185         -74.67         -2.326          32.54           53.0          87.05
    0.1252              -12.13          20.63          15.54          50.81         -10.95          4.186         -74.65         -2.316          32.54          53.01          87.05
    0.1564              -12.13          20.63          15.53          50.81         -10.95          4.186         -74.63         -2.305          32.54          53.02          87.05
    0.1877              -12.13          20.63          15.53          50.81         -10.95          4.186          -74.6         -2.293          32.54          53.03          87.05
     0.219              -12.13          20.63          15.53          50.82         -10.95          4.187         -74.58         -2.281          32.54          53.04          87.05
    0.2503              -12.13          20.63          15.53          50.82         -10.95          4.187         -74.55         -2.268          32.53          53.06          87.05
    0.2816              -12.13          20.64          15.53          50.82         -10.95          4.188         -74.52         -2.254          32.53          53.07          87.05
    0.3129              -12.13          20.64          15.53          50.82         -10.95          4.188         -74.49         -2.239          32.53          53.09          87.05
    0.3442              -12.13          20.64          15.53          50.83         -10.94          4.189         -74.46         -2.223          32.53           53.1          87.05
    0.3755              -12.13          20.65          15.53          50.83         -10.94          4.189         -74.42         -2.205          32.52          53.12          87.05
    0.4068              -12.14          20.65          15.52          50.83         -10.94           4.19         -74.39         -2.186          32.52          53.14          87.05
    0.4381              -12.14          20.65          15.52          50.84         -10.94          4.191         -74.34         -2.166          32.52          53.16          87.04
    0.4693              -12.14          20.66          15.52          50.84         -10.94          4.191          -74.3         -2.143          32.51          53.19          87.04
    0.5006              -12.14          20.66          15.52          50.84         -10.94          4.192         -74.25         -2.119          32.51          53.21          87.04
    0.5319              -12.14          20.67          15.52          50.85         -10.94          4.193          -74.2         -2.093          32.51          53.24          87.04
    0.5632              -12.15          20.67          15.51          50.85         -10.94          4.194         -74.14         -2.064           32.5          53.27          87.04
    0.5945              -12.15          20.68          15.51          50.86         -10.94          4.195         -74.08         -2.033           32.5           53.3          87.04
    0.6258              -12.15          20.68          15.51          50.87         -10.94          4.196         -74.01         -1.998          32.49          53.34          87.03
    0.6571              -12.15          20.69           15.5          50.87         -10.94          4.198         -73.93          -1.96          32.48          53.38          87.03
    0.6884              -12.16           20.7           15.5          50.88         -10.94          4.199         -73.84         -1.918          32.48          53.42          87.03
    0.7197              -12.16          20.71           15.5          50.89         -10.94          4.201         -73.75         -1.872          32.47          53.47          87.03
    0.7509              -12.17          20.72          15.49           50.9         -10.94          4.202         -73.64          -1.82          32.46          53.52          87.02
    0.7822              -12.17          20.73          15.49          50.91         -10.94          4.204         -73.53         -1.762          32.45          53.58          87.02
    0.8135              -12.18          20.74          15.48          50.92         -10.93          4.206          -73.4         -1.698          32.44          53.65          87.02
    0.8448              -12.18          20.75          15.47          50.93         -10.93          4.209         -73.25         -1.625          32.43          53.73          87.01
    0.8761              -12.19          20.77          15.47          50.95         -10.93          4.212         -73.08         -1.543          32.42          53.81          87.01
    0.9074               -12.2          20.79          15.46          50.96         -10.93          4.215         -72.89         -1.449           32.4          53.91           87.0
    0.9387              -12.21           20.8          15.45          50.98         -10.93          4.218         -72.68         -1.343          32.39          54.02          86.99
      0.97              -12.22          20.83          15.44           51.0         -10.92          4.223         -72.43         -1.221          32.37          54.15          86.99
     1.001              -12.23          20.85          15.42          51.03         -10.92          4.227         -72.14          -1.08          32.34          54.29          86.98
     1.033              -12.24          20.88          15.41          51.06         -10.92          4.233         -71.81        -0.9157          32.32          54.46          86.97
     1.064              -12.26          20.92          15.39          51.09         -10.91          4.239         -71.42        -0.7239          32.29          54.66          86.95
     1.095              -12.28          20.96          15.37          51.13         -10.91          4.247         -70.96        -0.4978          32.25           54.9          86.94
     1.126               -12.3          21.01          15.35          51.18          -10.9          4.256         -70.42         -0.229          32.21          55.18          86.92
     1.158              -12.32          21.07          15.32          51.23          -10.9          4.267         -69.77        0.09307          32.16          55.51           86.9
     1.189              -12.36          21.14          15.28           51.3         -10.89           4.28         -68.98         0.4828          32.09          55.92          86.88
      1.22               -12.4          21.23          15.24          51.39         -10.88          4.296         -68.01         0.9588          32.02          56.41          86.85
     1.252              -12.44          21.34          15.19          51.49         -10.87          4.316         -66.82          1.546          31.92          57.02          86.81
     1.283              -12.51          21.47          15.12          51.62         -10.85           4.34         -65.34          2.279          31.81          57.79          86.77
     1.314              -12.58          21.64          15.04          51.78         -10.84          4.371         -63.47          3.202          31.66          58.74          86.71
     1.345              -12.68          21.86          14.93          51.99         -10.81          4.411         -61.09          4.375          31.47          59.96          86.64
     1.377               -12.8          22.14          14.79          52.25         -10.78          4.461         -58.05          5.877          31.23          61.53          86.54
     1.408              -12.96          22.49          14.62          52.59         -10.74          4.526         -54.14          7.804          30.92          63.53          86.42
     1.439              -13.16          22.95           14.4          53.02         -10.69          4.609         -49.15          10.27          30.53          66.09          86.27
     1.471              -13.42          23.52          14.12          53.57         -10.63          4.713         -42.88          13.36          30.03          69.31          86.08
     1.502              -13.73          24.21          13.78          54.23         -10.55           4.84         -35.24          17.13          29.43          73.23          85.84
